<svg width="64" height="64" viewBox="0 0 64 64" fill="none" xmlns="http://www.w3.org/2000/svg">
<path d="M48.2957 9.69583C48.0958 9.49755 47.9371 9.26164 47.8288 9.00173C47.7205 8.74181 47.6648 8.46303 47.6648 8.18145C47.6648 7.89988 47.7205 7.6211 47.8288 7.36118C47.9371 7.10127 48.0958 6.86536 48.2957 6.66708L54.3105 0.630914C54.5088 0.430999 54.7447 0.272322 55.0046 0.164036C55.2645 0.0557508 55.5433 0 55.8249 0C56.1065 0 56.3852 0.0557508 56.6452 0.164036C56.9051 0.272322 57.141 0.430999 57.3393 0.630914L63.3754 6.66708C63.5731 6.86638 63.7295 7.10274 63.8357 7.36261C63.9418 7.62248 63.9956 7.90075 63.994 8.18145C63.9861 8.74618 63.7652 9.28709 63.3754 9.69583L57.3393 15.7107C57.1417 15.9122 56.9062 16.0725 56.6462 16.1824C56.3863 16.2922 56.1071 16.3494 55.8249 16.3505C55.5427 16.3494 55.2635 16.2922 55.0036 16.1824C54.7436 16.0725 54.5081 15.9122 54.3105 15.7107L48.2957 9.69583ZM17.4963 37.8077C17.1274 37.9197 16.7957 38.1296 16.5366 38.415C16.2774 38.7004 16.1005 39.0508 16.0246 39.4287L14.5315 46.9366C14.4629 47.2793 14.4796 47.6336 14.58 47.9683C14.6804 48.303 14.8615 48.6079 15.1074 48.8563C15.3067 49.0539 15.5431 49.2103 15.803 49.3165C16.0628 49.4226 16.3411 49.4764 16.6218 49.4748C16.7561 49.4956 16.8928 49.4956 17.0271 49.4748L24.5776 47.9818C24.9556 47.9058 25.3059 47.7289 25.5914 47.4698C25.8768 47.2106 26.0867 46.879 26.1986 46.51C26.3118 46.1396 26.3219 45.7454 26.228 45.3696C26.1341 44.9938 25.9396 44.6507 25.6654 44.3771L19.6292 38.4049C19.3625 38.1196 19.0225 37.9131 18.6464 37.8078C18.2702 37.7025 17.8724 37.7024 17.4963 37.8077ZM61.8611 17.0757C61.2954 17.0757 60.7529 17.3005 60.3529 17.7005C59.9529 18.1005 59.7281 18.643 59.7281 19.2087V59.7342H4.27219V12.8099H27.7343C28.3 12.8099 28.8425 12.5852 29.2425 12.1852C29.6425 11.7852 29.8672 11.2427 29.8672 10.677C29.8672 10.1113 29.6425 9.56877 29.2425 9.16877C28.8425 8.76877 28.3 8.54405 27.7343 8.54405H2.13927C1.57358 8.54405 1.03107 8.76877 0.631066 9.16877C0.231065 9.56877 0.00634766 10.1113 0.00634766 10.677V61.8671C0.00634766 62.4328 0.231065 62.9753 0.631066 63.3753C1.03107 63.7753 1.57358 64 2.13927 64H61.8611C62.4267 64 62.9693 63.7753 63.3693 63.3753C63.7693 62.9753 63.994 62.4328 63.994 61.8671V19.2087C63.994 18.643 63.7693 18.1005 63.3693 17.7005C62.9693 17.3005 62.4267 17.0757 61.8611 17.0757ZM34.709 17.225L40.7451 11.1889L42.2595 12.7032L21.1436 33.8192C20.9459 34.0185 20.7895 34.2548 20.6834 34.5147C20.5772 34.7746 20.5234 35.0528 20.525 35.3335C20.5274 35.8931 20.7495 36.4293 21.1436 36.8266L27.1798 42.8628C27.5794 43.26 28.12 43.483 28.6835 43.483C29.247 43.483 29.7875 43.26 30.1872 42.8628L52.8175 20.2538C53.2072 19.845 53.4282 19.3041 53.436 18.7394C53.4376 18.4587 53.3838 18.1804 53.2777 17.9206C53.1716 17.6607 53.0152 17.4243 52.8175 17.225L43.7526 8.18145L45.2669 6.66708C45.4902 6.47587 45.6716 6.24057 45.7996 5.97595C45.9276 5.71133 45.9995 5.4231 46.0109 5.12936C46.0222 4.83561 45.9727 4.5427 45.8655 4.26899C45.7583 3.99528 45.5956 3.74669 45.3878 3.53883C45.1799 3.33097 44.9313 3.16832 44.6576 3.06108C44.3839 2.95385 44.091 2.90436 43.7972 2.9157C43.5035 2.92705 43.2153 2.99899 42.9506 3.12702C42.686 3.25504 42.4507 3.43638 42.2595 3.65966L31.7016 14.3243C31.4783 14.5155 31.2969 14.7508 31.1689 15.0154C31.0409 15.28 30.9689 15.5682 30.9576 15.862C30.9462 16.1557 30.9957 16.4487 31.103 16.7224C31.2102 16.9961 31.3729 17.2447 31.5807 17.4525C31.7886 17.6604 32.0372 17.823 32.3109 17.9303C32.5846 18.0375 32.8775 18.087 33.1712 18.0756C33.465 18.0643 33.7532 17.9924 34.0178 17.8643C34.2825 17.7363 34.5178 17.555 34.709 17.3317V17.225Z" fill="#404040"/>
</svg>
