<svg width="106" height="44" viewBox="0 0 106 44" fill="none" xmlns="http://www.w3.org/2000/svg">
<path d="M17.0002 35.8679C17.0271 37.3909 17.5018 38.872 18.3647 40.1252C19.2277 41.3784 20.4404 42.3479 21.8506 42.912C23.2608 43.4761 24.8056 43.6096 26.2912 43.2959C27.7768 42.9821 29.1369 42.235 30.2008 41.1484C31.2647 40.0617 31.9849 38.684 32.2711 37.1881C32.5572 35.6922 32.3966 34.1448 31.8093 32.7402C31.2221 31.3356 30.2343 30.1363 28.9701 29.293C27.7058 28.4497 26.2215 27.9999 24.7033 28C22.6421 28.019 20.6728 28.8585 19.2283 30.3339C17.7838 31.8093 16.9823 33.7998 17.0002 35.8679ZM21.4647 35.8679C21.4754 35.2263 21.6749 34.6021 22.0381 34.0738C22.4012 33.5455 22.912 33.1368 23.506 32.8989C24.1001 32.6609 24.7509 32.6045 25.3769 32.7367C26.0028 32.8688 26.5758 33.1836 27.0239 33.6416C27.472 34.0995 27.7753 34.6801 27.8955 35.3104C28.0157 35.9408 27.9475 36.5927 27.6995 37.1842C27.4515 37.7758 27.0348 38.2806 26.5017 38.6353C25.9686 38.9899 25.3429 39.1786 24.7033 39.1775C23.8365 39.1694 23.0083 38.8162 22.401 38.1956C21.7937 37.5749 21.4569 36.7377 21.4647 35.8679Z" fill="#1B2340"/>
<path d="M75.0002 35.868C75.0273 37.3906 75.5021 38.8714 76.365 40.1242C77.2279 41.3771 78.4404 42.3464 79.8504 42.9103C81.2604 43.4742 82.805 43.6076 84.2903 43.2939C85.7756 42.9801 87.1354 42.2332 88.1991 41.1467C89.2628 40.0603 89.9829 38.6828 90.2691 37.1872C90.5552 35.6916 90.3947 34.1445 89.8076 32.7401C89.2205 31.3357 88.233 30.1366 86.9691 29.2933C85.7052 28.45 84.2212 28 82.7033 28C80.6421 28.019 78.6728 28.8585 77.2283 30.3339C75.7838 31.8093 74.9823 33.7999 75.0002 35.868ZM79.4657 35.868C79.4764 35.2262 79.6759 34.602 80.0391 34.0737C80.4023 33.5454 80.9131 33.1367 81.5072 32.8988C82.1013 32.6609 82.7523 32.6045 83.3782 32.7368C84.0042 32.869 84.5772 33.1839 85.0253 33.6419C85.4733 34.1 85.7765 34.6807 85.8965 35.3111C86.0166 35.9415 85.9483 36.5934 85.7002 37.1849C85.4521 37.7765 85.0352 38.2813 84.502 38.6358C83.9688 38.9903 83.343 39.1788 82.7033 39.1775C82.2741 39.1735 81.8499 39.0847 81.455 38.9162C81.06 38.7478 80.702 38.5029 80.4013 38.1955C80.1007 37.8882 79.8633 37.5245 79.7028 37.1251C79.5423 36.7257 79.4617 36.2986 79.4657 35.868Z" fill="#1B2340"/>
<path d="M105 31.814C104.578 31.814 104.236 31.4722 104.236 31.0505V23.7851C104.236 21.3979 102.549 19.3436 100.207 18.8802L88.0026 16.4653C87.5271 16.3712 87.1019 16.1077 86.8062 15.7236L75.8988 1.55948C75.1415 0.576126 73.9707 0 72.7296 0H43.8576C43.0733 0 42.3202 0.307154 41.7596 0.855667L26.4264 15.8579C26.1576 16.1209 25.82 16.3028 25.4525 16.3827L6.63937 20.4713C4.34078 20.9708 2.70121 23.005 2.70121 25.3572V31.0737C2.70121 31.4825 2.36978 31.814 1.96094 31.814C0.977816 31.814 0.26773 32.7545 0.537008 33.7L1.34804 36.5478C1.59279 37.4072 2.37796 38 3.27155 38H14.9999C14.9999 37.8233 14.9999 37.4698 14.9999 37.4698C14.9999 29.9876 20.4999 26.5 24.9999 26.5C29.9999 26.5 34.9999 29.9876 34.9999 37.4698C34.9999 37.4698 34.9999 38 34.9999 38.1767L72.4999 38C72.4999 30.5178 77.6962 26.5 81.9999 26.5C88.6962 26.5 92.4999 30.5178 92.4999 38H103.176C104.281 38 105.176 37.1046 105.176 36V31.9901C105.176 31.8928 105.097 31.814 105 31.814ZM55.4361 13.4341C55.4361 13.9864 54.9884 14.4341 54.4361 14.4341H35.1639C34.2674 14.4341 33.8238 13.3454 34.465 12.7189L43.6933 3.70181C43.8802 3.51926 44.131 3.41705 44.3922 3.41705H54.4361C54.9884 3.41705 55.4361 3.86477 55.4361 4.41705V13.4341ZM62.1895 14.493C62.0864 14.4968 62.0013 14.4134 62.0031 14.3103L62.1726 4.39995C62.182 3.85441 62.6269 3.41705 63.1725 3.41705H72.561C72.8716 3.41705 73.1645 3.56135 73.3538 3.80756L80.3313 12.8835C80.8369 13.5412 80.368 14.493 79.5385 14.493H62.1895Z" fill="#1B2340"/>
</svg>
