<svg width="96" height="51" viewBox="0 0 96 51" fill="none" xmlns="http://www.w3.org/2000/svg">
<path d="M30.3284 42.0911C30.36 43.8779 30.9139 45.6156 31.9204 47.0858C32.927 48.5561 34.3414 49.6935 35.9861 50.3552C37.6307 51.017 39.4324 51.1736 41.165 50.8054C42.8975 50.4372 44.4837 49.5606 45.7245 48.2857C46.9652 47.0108 47.8052 45.3943 48.139 43.6392C48.4729 41.8841 48.2856 40.0686 47.6008 38.4205C46.916 36.7724 45.7641 35.3653 44.2898 34.3757C42.8155 33.3861 41.0844 32.8581 39.3139 32.858C36.9095 32.8803 34.6124 33.8655 32.9274 35.5969C31.2425 37.3282 30.3076 39.6642 30.3284 42.0911ZM35.5373 42.0911C35.5498 41.338 35.7825 40.6055 36.2062 39.9855C36.6299 39.3656 37.2256 38.8859 37.9186 38.6067C38.6117 38.3276 39.371 38.2614 40.1011 38.4166C40.8312 38.5718 41.4997 38.9413 42.0223 39.4788C42.545 40.0163 42.8986 40.6978 43.0386 41.4376C43.1787 42.1773 43.099 42.9424 42.8096 43.6366C42.5202 44.3307 42.0339 44.9231 41.4119 45.3391C40.79 45.7552 40.06 45.9763 39.3139 45.9748C38.8133 45.9701 38.3184 45.866 37.8577 45.6682C37.397 45.4705 36.9794 45.1831 36.6287 44.8225C36.278 44.4618 36.0011 44.035 35.8139 43.5664C35.6266 43.0977 35.5326 42.5964 35.5373 42.0911Z" fill="#1B2340"/>
<path d="M92.7474 20.53C92.3257 19.0076 90.9474 17.9546 89.3765 17.9546H75.2369C73.3043 17.9546 71.7375 16.3784 71.7375 14.4341V3.52051C71.7375 1.57619 70.1708 0 68.2381 0H55.3786C54.339 0 53.4042 0.636747 53.0181 1.6078C52.978 1.70851 52.9575 1.81598 52.9575 1.92444V17.887C52.9575 19.0061 51.6735 19.631 50.8013 18.9364C50.4069 18.6222 49.8701 18.5588 49.4141 18.7723L43.3925 21.5924H32.1944C31.9367 21.5924 31.7278 21.8026 31.7278 22.0618C31.7278 22.1914 31.6234 22.2965 31.4945 22.2965H27.4119C27.1786 21.9445 26.8287 21.7098 26.4787 21.7098C25.8955 21.7098 25.3123 22.1792 25.3123 22.8833V34.7356L24.9916 35.3003C24.4565 36.2422 22.734 36.1015 22.1055 35.2199C19.5859 31.6855 14.3776 28.1104 12.0872 26.6362C11.5741 26.306 10.9137 26.6531 10.8703 27.2644C10.856 27.4659 10.9158 27.6657 11.0382 27.8259L11.5586 28.5065C11.8365 28.8699 11.8785 29.3628 11.6663 29.7686L4.17733 44.0834C3.97562 44.469 3.57818 44.7104 3.1451 44.7104H0.699878C0.313346 44.7104 0 45.0256 0 45.4145C0 45.8033 0.312279 46.1186 0.698811 46.1186C2.66025 46.1186 8.36496 46.1186 12.8311 46.1186C17.6136 46.1186 20.6464 45.4145 22.746 41.6593L27.2835 39.0656C27.672 38.8436 27.9889 38.514 28.1966 38.116L30.3281 34.0315C30.3281 34.0315 33.1276 29.9243 39.0765 29.9243C46.0996 29.9243 48.9915 34.0315 50.158 38.7255H60.6561C62.4058 34.0315 65.322 29.9243 70.5711 29.9243C75.8202 29.9243 81.0693 31.0978 82.1191 37.9041H91.5343C92.153 37.9041 92.7464 37.6568 93.1839 37.2167L95.3167 35.071C95.7542 34.6308 96 34.0339 96 33.4114V32.7527C96 32.4332 95.9568 32.1153 95.8715 31.8076L92.7474 20.53ZM29.6153 28.0626C29.4721 28.1285 29.3532 28.2383 29.2756 28.3763C28.8978 29.0487 27.8785 28.779 27.8785 28.0066V24.6435C27.8785 23.9954 28.4007 23.47 29.045 23.47H31.6501C31.8219 23.47 31.9611 23.6101 31.9611 23.783C31.9611 24.1286 32.2396 24.4088 32.5832 24.4088H33.6597C34.572 24.4088 34.8425 25.6587 34.0128 26.0403L29.6153 28.0626ZM62.6391 2.5817C62.6391 1.9336 63.1614 1.4082 63.8056 1.4082H68.5881C69.2323 1.4082 69.7546 1.9336 69.7546 2.5817V13.0259C69.7546 13.674 69.2323 14.1994 68.5881 14.1994H63.8056C63.1614 14.1994 62.6391 13.674 62.6391 13.0259V2.5817ZM54.3572 2.5817C54.3572 1.9336 54.8795 1.4082 55.5237 1.4082H60.3062C60.9504 1.4082 61.4727 1.9336 61.4727 2.5817V19.2454C61.4727 19.8935 60.9504 20.4189 60.3062 20.4189H55.5237C54.8795 20.4189 54.3572 19.8935 54.3572 19.2454V2.5817Z" fill="#1B2340"/>
<path d="M62.9894 42.0911C63.021 43.8779 63.5749 45.6156 64.5814 47.0858C65.588 48.5561 67.0024 49.6935 68.6471 50.3552C70.2917 51.017 72.0934 51.1736 73.826 50.8054C75.5585 50.4372 77.1447 49.5606 78.3855 48.2857C79.6262 47.0108 80.4662 45.3943 80.8 43.6392C81.1338 41.8841 80.9466 40.0686 80.2618 38.4205C79.5769 36.7724 78.4251 35.3653 76.9508 34.3757C75.4765 33.3861 73.7454 32.8581 71.9749 32.858C69.5705 32.8803 67.2734 33.8655 65.5884 35.5969C63.9034 37.3282 62.9686 39.6642 62.9894 42.0911ZM68.1983 42.0911C68.2108 41.338 68.4435 40.6055 68.8672 39.9855C69.2909 39.3656 69.8866 38.8859 70.5796 38.6067C71.2726 38.3276 72.032 38.2614 72.7621 38.4166C73.4922 38.5718 74.1607 38.9413 74.6833 39.4788C75.206 40.0163 75.5596 40.6978 75.6996 41.4376C75.8397 42.1773 75.76 42.9424 75.4706 43.6366C75.1812 44.3307 74.6949 44.9231 74.0729 45.3391C73.451 45.7552 72.721 45.9763 71.9749 45.9748C71.4742 45.9701 70.9794 45.866 70.5187 45.6682C70.058 45.4705 69.6403 45.1831 69.2897 44.8225C68.939 44.4618 68.6621 44.035 68.4749 43.5664C68.2876 43.0977 68.1936 42.5964 68.1983 42.0911Z" fill="#1B2340"/>
</svg>
