<svg width="120" height="120" viewBox="0 0 120 120" fill="none" xmlns="http://www.w3.org/2000/svg">
<path fill-rule="evenodd" clip-rule="evenodd" d="M50.04 10.824C50.3118 9.46434 51.046 8.24077 52.118 7.36132C53.19 6.48187 54.5334 6.00084 55.92 6H64.08C65.4666 6.00084 66.81 6.48187 67.882 7.36132C68.9539 8.24077 69.6882 9.46434 69.96 10.824L71.73 19.662C74.712 20.526 77.556 21.714 80.226 23.184L87.726 18.18C88.8802 17.4103 90.2655 17.0644 91.6461 17.2012C93.0267 17.3379 94.3172 17.9489 95.298 18.93L101.07 24.702C102.051 25.6828 102.662 26.9733 102.799 28.3539C102.936 29.7345 102.59 31.1198 101.82 32.274L96.816 39.774C98.286 42.444 99.474 45.288 100.338 48.27L109.176 50.034C110.536 50.3058 111.759 51.04 112.639 52.112C113.518 53.184 113.999 54.5274 114 55.914V64.08C113.999 65.4666 113.518 66.81 112.639 67.882C111.759 68.9539 110.536 69.6882 109.176 69.96L100.338 71.73C99.4808 74.6832 98.2997 77.5325 96.816 80.226L101.82 87.726C102.59 88.8802 102.936 90.2655 102.799 91.6461C102.662 93.0267 102.051 94.3172 101.07 95.298L95.298 101.07C94.3172 102.051 93.0267 102.662 91.6461 102.799C90.2655 102.936 88.8802 102.59 87.726 101.82L80.226 96.816C77.5325 98.2995 74.6831 99.4807 71.73 100.338L69.966 109.176C69.6942 110.536 68.9599 111.759 67.888 112.639C66.816 113.518 65.4725 113.999 64.086 114H55.92C54.5334 113.999 53.19 113.518 52.118 112.639C51.046 111.759 50.3118 110.536 50.04 109.176L48.27 100.338C45.3169 99.4805 42.4676 98.2993 39.774 96.816L32.274 101.82C31.1198 102.59 29.7345 102.936 28.3539 102.799C26.9733 102.662 25.6828 102.051 24.702 101.07L18.93 95.298C17.9489 94.3172 17.3379 93.0267 17.2012 91.6461C17.0644 90.2655 17.4103 88.8802 18.18 87.726L23.184 80.226C21.7006 77.5324 20.5195 74.6831 19.662 71.73L10.824 69.966C9.46333 69.694 8.23898 68.9589 7.35942 67.8857C6.47985 66.8125 5.99945 65.4676 6 64.08V55.92C6.00084 54.5334 6.48187 53.19 7.36132 52.118C8.24077 51.046 9.46434 50.3118 10.824 50.04L19.662 48.27C20.526 45.288 21.714 42.444 23.184 39.774L18.18 32.274C17.4103 31.1198 17.0644 29.7345 17.2012 28.3539C17.3379 26.9733 17.9489 25.6828 18.93 24.702L24.702 18.93C25.6832 17.9474 26.9749 17.3355 28.3568 17.1987C29.7387 17.062 31.1252 17.4088 32.28 18.18L39.78 23.184C42.4736 21.7006 45.3229 20.5195 48.276 19.662L50.04 10.824ZM78 60C78 64.7739 76.1036 69.3523 72.7279 72.7279C69.3523 76.1036 64.7739 78 60 78C55.2261 78 50.6477 76.1036 47.2721 72.7279C43.8964 69.3523 42 64.7739 42 60C42 55.2261 43.8964 50.6477 47.2721 47.2721C50.6477 43.8964 55.2261 42 60 42C64.7739 42 69.3523 43.8964 72.7279 47.2721C76.1036 50.6477 78 55.2261 78 60V60Z" fill="#1B2340"/>
</svg>
