<svg width="103" height="56" viewBox="0 0 103 56" fill="none" xmlns="http://www.w3.org/2000/svg">
<path d="M12.7964 47.4502C12.8234 48.9732 13.2981 50.4542 14.161 51.7074C15.024 52.9606 16.2367 53.9301 17.6469 54.4942C19.0571 55.0583 20.6019 55.1919 22.0875 54.8781C23.5731 54.5644 24.9332 53.8173 25.9971 52.7306C27.0609 51.644 27.7812 50.2663 28.0673 48.7704C28.3535 47.2745 28.1929 45.7271 27.6056 44.3225C27.0183 42.9179 26.0306 41.7186 24.7663 40.8753C23.5021 40.032 22.0177 39.5821 20.4996 39.5823C18.4384 39.6013 16.4691 40.4408 15.0246 41.9162C13.5801 43.3916 12.7786 45.3821 12.7964 47.4502ZM17.261 47.4502C17.2717 46.8085 17.4711 46.1844 17.8343 45.6561C18.1975 45.1278 18.7082 44.719 19.3023 44.4811C19.8963 44.2432 20.5472 44.1868 21.1731 44.3189C21.799 44.4511 22.3721 44.7659 22.8202 45.2239C23.2683 45.6818 23.5715 46.2624 23.6917 46.8927C23.8119 47.523 23.7438 48.175 23.4958 48.7665C23.2478 49.3581 22.8311 49.8629 22.298 50.2176C21.7649 50.5722 21.1392 50.7608 20.4996 50.7598C19.6327 50.7517 18.8046 50.3985 18.1973 49.7778C17.5899 49.1572 17.2532 48.32 17.261 47.4502Z" fill="#1B2340"/>
<path d="M103 34.6622L102.828 36.7905V42C102.828 43.6569 101.485 45 99.8283 45H91.67C91 41.4706 87.65 38.3824 82.5 38.3824C77.5217 38.3824 74 40.5882 73 45H29.7227C28.5 41.4706 25.9783 38.4628 21 38.4628C16.0217 38.4628 12.5 40.5882 11.5 45H3C1.34315 45 0 43.6569 0 42V28.5398C0 28.3676 0.0445056 28.1982 0.129203 28.0482L0.171667 27.973L9.17465 7.13129C9.64931 6.03246 10.7317 5.32095 11.9287 5.32095H28.7335C30.4 5.32095 31.7471 6.67921 31.7334 8.34567L31.595 25.1404C31.5904 25.6959 32.0394 26.1487 32.5949 26.1487H33.3333C33.8856 26.1487 34.3333 25.7009 34.3333 25.1487V3C34.3333 1.34315 35.6765 0 37.3333 0H100C101.657 0 103 1.34315 103 3V34.6622ZM11.6685 7.44932C11.2572 7.44932 10.8879 7.70118 10.7376 8.08409L4.48398 24.0233C4.22661 24.6792 4.71025 25.3885 5.41489 25.3885H27.8495C28.3981 25.3885 28.8442 24.9466 28.8495 24.3981L29.002 8.45889C29.0073 7.90289 28.5581 7.44932 28.0021 7.44932H11.6685Z" fill="#1B2340"/>
<path d="M74.2785 47.4502C74.3056 48.9729 74.7804 50.4536 75.6433 51.7065C76.5062 52.9594 77.7188 53.9286 79.1287 54.4925C80.5387 55.0565 82.0833 55.1899 83.5686 54.8762C85.0539 54.5624 86.4137 53.8154 87.4774 52.729C88.5411 51.6426 89.2612 50.2651 89.5474 48.7695C89.8336 47.2738 89.673 45.7267 89.0859 44.3223C88.4989 42.9179 87.5114 41.7188 86.2475 40.8755C84.9835 40.0322 83.4995 39.5823 81.9817 39.5823C79.9204 39.6013 77.9511 40.4408 76.5066 41.9162C75.0621 43.3916 74.2607 45.3821 74.2785 47.4502ZM78.7441 47.4502C78.7547 46.8085 78.9542 46.1843 79.3174 45.656C79.6807 45.1277 80.1914 44.7189 80.7855 44.481C81.3797 44.2432 82.0306 44.1868 82.6565 44.319C83.2825 44.4513 83.8555 44.7662 84.3036 45.2242C84.7517 45.6822 85.0548 46.263 85.1749 46.8933C85.295 47.5237 85.2267 48.1757 84.9785 48.7672C84.7304 49.3588 84.3135 49.8635 83.7803 50.2181C83.2471 50.5726 82.6213 50.761 81.9817 50.7598C81.5525 50.7558 81.1283 50.667 80.7333 50.4985C80.3383 50.33 79.9803 50.0851 79.6796 49.7778C79.379 49.4705 79.1417 49.1068 78.9811 48.7074C78.8206 48.308 78.74 47.8808 78.7441 47.4502Z" fill="#1B2340"/>
</svg>
