<svg width="98" height="48" viewBox="0 0 98 48" fill="none" xmlns="http://www.w3.org/2000/svg">
<path d="M5.79648 39.4502C5.8234 40.9732 6.29812 42.4542 7.16106 43.7074C8.024 44.9606 9.23671 45.9301 10.6469 46.4942C12.0571 47.0583 13.602 47.1919 15.0875 46.8781C16.5731 46.5644 17.9332 45.8173 18.9971 44.7306C20.061 43.644 20.7812 42.2663 21.0674 40.7704C21.3536 39.2745 21.1929 37.7271 20.6057 36.3225C20.0184 34.9179 19.0306 33.7186 17.7664 32.8753C16.5021 32.032 15.0178 31.5821 13.4996 31.5823C11.4384 31.6013 9.46911 32.4408 8.02461 33.9162C6.58011 35.3916 5.77867 37.3821 5.79648 39.4502ZM10.2611 39.4502C10.2717 38.8085 10.4712 38.1844 10.8344 37.6561C11.1976 37.1278 11.7083 36.719 12.3023 36.4811C12.8964 36.2432 13.5473 36.1868 14.1732 36.3189C14.7991 36.4511 15.3721 36.7659 15.8202 37.2239C16.2684 37.6818 16.5716 38.2624 16.6918 38.8927C16.812 39.523 16.7438 40.175 16.4958 40.7665C16.2478 41.3581 15.8311 41.8629 15.298 42.2176C14.7649 42.5722 14.1393 42.7608 13.4996 42.7598C12.6328 42.7517 11.8046 42.3985 11.1973 41.7778C10.59 41.1572 10.2532 40.32 10.2611 39.4502Z" fill="#1B2340"/>
<path d="M75.2785 39.4502C75.3057 40.9729 75.7805 42.4536 76.6434 43.7065C77.5063 44.9594 78.7188 45.9286 80.1288 46.4925C81.5388 47.0565 83.0833 47.1899 84.5686 46.8762C86.054 46.5624 87.4138 45.8154 88.4775 44.729C89.5411 43.6426 90.2613 42.2651 90.5474 40.7695C90.8336 39.2738 90.6731 37.7267 90.086 36.3223C89.4989 34.9179 88.5114 33.7188 87.2475 32.8755C85.9836 32.0322 84.4996 31.5823 82.9817 31.5823C80.9205 31.6013 78.9511 32.4408 77.5066 33.9162C76.0621 35.3916 75.2607 37.3821 75.2785 39.4502ZM79.7441 39.4502C79.7548 38.8085 79.9543 38.1843 80.3175 37.656C80.6807 37.1277 81.1915 36.7189 81.7856 36.481C82.3797 36.2432 83.0306 36.1868 83.6566 36.319C84.2825 36.4513 84.8556 36.7662 85.3036 37.2242C85.7517 37.6822 86.0548 38.263 86.1749 38.8933C86.295 39.5237 86.2267 40.1757 85.9786 40.7672C85.7304 41.3588 85.3136 41.8635 84.7804 42.2181C84.2471 42.5726 83.6214 42.761 82.9817 42.7598C82.5525 42.7558 82.1283 42.667 81.7334 42.4985C81.3384 42.33 80.9803 42.0851 80.6797 41.7778C80.3791 41.4705 80.1417 41.1068 79.9812 40.7074C79.8206 40.308 79.7401 39.8808 79.7441 39.4502Z" fill="#1B2340"/>
<path d="M0.124727 26.4816L0.249409 26.3579C0.249409 22.7692 2.86773 21.7793 2.86773 21.7793L16.4581 15.7157L18.2036 12.7458L24.5624 1.3612C24.9364 0.618729 25.9339 0 26.8067 0H96.3792C97.0026 0 97.2494 0 97.5 0H97.679C97.7874 0 97.8754 0.0879276 97.8754 0.196392V35.5151C97.8754 36.4035 97.143 37.1237 96.2545 37.1237H92.514V37C91.6413 32.7926 87.7761 29.5753 83.2876 29.5753C78.6744 29.5753 74.8092 32.7926 74.0611 37.1237H22.5675C21.6947 32.7926 17.8296 29.5753 13.341 29.5753C8.72778 29.5753 5.23669 32.7926 4.36391 37.1237H1.62091C0.728819 37.1237 0.00858231 36.395 0.0190332 35.503L0.124727 26.4816ZM25.7745 6.68228C24.6479 6.68228 23.6163 7.31346 23.1034 8.31654L20.4439 13.518C20.1036 14.1834 20.5869 14.9732 21.3342 14.9732H35.1727C35.7192 14.9732 36.1644 14.5346 36.1726 13.9883L36.2672 7.69731C36.2756 7.13921 35.8255 6.68228 35.2673 6.68228H25.7745Z" fill="#1B2340"/>
</svg>
