<svg width="83" height="49" viewBox="0 0 83 49" fill="none" xmlns="http://www.w3.org/2000/svg">
<path d="M59.2653 35.0205C58.9918 35.86 58.0326 35.8518 57.7863 35.0039C57.2453 33.142 56.5742 30.9011 55.7286 30.2711L61.5 30.2505C60.651 30.8829 59.875 33.1482 59.2653 35.0205Z" fill="#1B2340"/>
<path d="M61.5 30.2505L79.1267 30.3497V37.666C79.1267 38.265 78.6411 38.7505 78.0422 38.7505C77.7428 38.7505 77.5024 38.5066 77.4598 38.2102C77.2732 36.9103 76.5 35.7505 76.5 35.7505C74.5 32.7505 73.4219 30.3038 61.5 30.2505Z" fill="#1B2340"/>
<path d="M37 30.3497L55.7286 30.2711C43.9767 30.3204 40.2862 31.6412 39.5725 37.9569C39.5223 38.4016 39.1533 38.7505 38.7058 38.7505C37.7637 38.7505 37 37.9868 37 37.0447V30.3497Z" fill="#1B2340"/>
<path d="M0 2.75049C0 1.64592 0.895429 0.750488 2 0.750488H81C82.1046 0.750488 83 1.64592 83 2.75049V28.3497C83 29.4542 82.1046 30.3497 81 30.3497H2C0.89543 30.3497 0 29.4542 0 28.3497V2.75049Z" fill="#1B2340"/>
<path d="M41.0003 40.6184C41.0274 42.1411 41.5022 43.6218 42.3651 44.8747C43.228 46.1276 44.4406 47.0969 45.8505 47.6608C47.2605 48.2247 48.8051 48.3581 50.2904 48.0444C51.7757 47.7306 53.1355 46.9836 54.1992 45.8972C55.2629 44.8108 55.983 43.4333 56.2692 41.9377C56.5554 40.4421 56.3948 38.895 55.8077 37.4906C55.2207 36.0862 54.2332 34.887 52.9693 34.0437C51.7053 33.2004 50.2213 32.7505 48.7035 32.7505C46.6422 32.7695 44.6729 33.609 43.2284 35.0844C41.7839 36.5598 40.9825 38.5503 41.0003 40.6184ZM45.4659 40.6184C45.4765 39.9767 45.676 39.3525 46.0392 38.8242C46.4025 38.2959 46.9132 37.8871 47.5073 37.6493C48.1015 37.4114 48.7524 37.355 49.3783 37.4872C50.0043 37.6195 50.5773 37.9344 51.0254 38.3924C51.4735 38.8505 51.7766 39.4312 51.8967 40.0616C52.0168 40.6919 51.9485 41.3439 51.7003 41.9354C51.4522 42.527 51.0353 43.0317 50.5021 43.3863C49.9689 43.7408 49.3431 43.9293 48.7035 43.928C48.2743 43.924 47.8501 43.8352 47.4551 43.6667C47.0601 43.4982 46.7021 43.2533 46.4015 42.946C46.1008 42.6387 45.8635 42.275 45.7029 41.8756C45.5424 41.4762 45.4618 41.049 45.4659 40.6184Z" fill="#1B2340"/>
<path d="M60.0003 40.6184C60.0274 42.1411 60.5022 43.6218 61.3651 44.8747C62.228 46.1276 63.4406 47.0969 64.8505 47.6608C66.2605 48.2247 67.8051 48.3581 69.2904 48.0444C70.7757 47.7306 72.1355 46.9836 73.1992 45.8972C74.2629 44.8108 74.983 43.4333 75.2692 41.9377C75.5554 40.4421 75.3948 38.895 74.8077 37.4906C74.2207 36.0862 73.2332 34.887 71.9693 34.0437C70.7053 33.2004 69.2213 32.7505 67.7035 32.7505C65.6422 32.7695 63.6729 33.609 62.2284 35.0844C60.7839 36.5598 59.9825 38.5503 60.0003 40.6184ZM64.4659 40.6184C64.4765 39.9767 64.676 39.3525 65.0392 38.8242C65.4025 38.2959 65.9132 37.8871 66.5073 37.6493C67.1015 37.4114 67.7524 37.355 68.3783 37.4872C69.0043 37.6195 69.5773 37.9344 70.0254 38.3924C70.4735 38.8505 70.7766 39.4312 70.8967 40.0616C71.0168 40.6919 70.9485 41.3439 70.7003 41.9354C70.4522 42.527 70.0353 43.0317 69.5021 43.3863C68.9689 43.7408 68.3431 43.9293 67.7035 43.928C67.2743 43.924 66.8501 43.8352 66.4551 43.6667C66.0601 43.4982 65.7021 43.2533 65.4015 42.946C65.1008 42.6387 64.8635 42.275 64.7029 41.8756C64.5424 41.4762 64.4618 41.049 64.4659 40.6184Z" fill="#1B2340"/>
</svg>
