<svg width="62" height="46" viewBox="0 0 62 46" fill="none" xmlns="http://www.w3.org/2000/svg">
<path d="M4.69675 37.6184C4.72387 39.1411 5.19867 40.6218 6.06158 41.8747C6.92448 43.1276 8.13703 44.0969 9.54701 44.6608C10.957 45.2247 12.5016 45.3581 13.9869 45.0444C15.4722 44.7306 16.832 43.9836 17.8957 42.8972C18.9594 41.8108 19.6795 40.4333 19.9657 38.9377C20.2518 37.4421 20.0913 35.895 19.5042 34.4906C18.9171 33.0862 17.9296 31.887 16.6657 31.0437C15.4018 30.2005 13.9178 29.7505 12.3999 29.7505C10.3387 29.7695 8.36936 30.609 6.92486 32.0844C5.48035 33.5598 4.67894 35.5503 4.69675 37.6184ZM9.16232 37.6184C9.17299 36.9767 9.37247 36.3525 9.7357 35.8242C10.0989 35.2959 10.6097 34.8871 11.2038 34.6493C11.7979 34.4114 12.4489 34.355 13.0748 34.4872C13.7007 34.6195 14.2738 34.9344 14.7218 35.3924C15.1699 35.8505 15.473 36.4312 15.5931 37.0616C15.7132 37.6919 15.6449 38.3439 15.3968 38.9354C15.1487 39.527 14.7318 40.0317 14.1986 40.3863C13.6654 40.7408 13.0396 40.9293 12.3999 40.928C11.9707 40.924 11.5465 40.8352 11.1516 40.6667C10.7566 40.4982 10.3986 40.2533 10.0979 39.946C9.79727 39.6387 9.55992 39.275 9.39939 38.8756C9.23885 38.4762 9.1583 38.049 9.16232 37.6184Z" fill="#1B2340"/>
<path d="M32.6968 37.6184C32.7239 39.1411 33.1987 40.6218 34.0616 41.8747C34.9245 43.1276 36.137 44.0969 37.547 44.6608C38.957 45.2247 40.5016 45.3581 41.9869 45.0444C43.4722 44.7306 44.832 43.9836 45.8957 42.8972C46.9594 41.8108 47.6795 40.4333 47.9657 38.9377C48.2518 37.4421 48.0913 35.895 47.5042 34.4906C46.9171 33.0862 45.9296 31.887 44.6657 31.0437C43.4018 30.2005 41.9178 29.7505 40.3999 29.7505C38.3387 29.7695 36.3694 30.609 34.9249 32.0844C33.4804 33.5598 32.6789 35.5503 32.6968 37.6184ZM37.1623 37.6184C37.173 36.9767 37.3725 36.3525 37.7357 35.8242C38.0989 35.2959 38.6097 34.8871 39.2038 34.6493C39.7979 34.4114 40.4489 34.355 41.0748 34.4872C41.7007 34.6195 42.2738 34.9344 42.7218 35.3924C43.1699 35.8505 43.473 36.4312 43.5931 37.0616C43.7132 37.6919 43.6449 38.3439 43.3968 38.9354C43.1487 39.527 42.7318 40.0317 42.1986 40.3863C41.6654 40.7408 41.0396 40.9293 40.3999 40.928C39.9707 40.924 39.5465 40.8352 39.1516 40.6667C38.7566 40.4982 38.3986 40.2533 38.0979 39.946C37.7973 39.6387 37.5599 39.275 37.3994 38.8756C37.2389 38.4762 37.1583 38.049 37.1623 37.6184Z" fill="#1B2340"/>
<path d="M49.6682 15.6142C49.6682 16.1664 49.2205 16.6142 48.6682 16.6142H41.4497C40.8975 16.6142 40.4497 16.1664 40.4497 15.6142V3.95565C40.4497 3.40336 40.8975 2.95565 41.4497 2.95565H48.6682C49.2205 2.95565 49.6682 3.40337 49.6682 3.95565V15.6142ZM38.2682 15.6142C38.2682 16.1664 37.8205 16.6142 37.2682 16.6142H30.4383C29.7554 16.6142 29.2734 15.9449 29.4899 15.2972L33.386 3.6387C33.5223 3.23073 33.9043 2.95565 34.3344 2.95565H37.2682C37.8205 2.95565 38.2682 3.40337 38.2682 3.95565V15.6142ZM31.4215 22.3984C31.4215 22.9507 30.9738 23.3984 30.4215 23.3984H7.43993C6.88765 23.3984 6.43993 22.9507 6.43993 22.3984V22.2045C6.43993 21.6522 6.88765 21.2045 7.43993 21.2045H30.4215C30.9738 21.2045 31.4215 21.6522 31.4215 22.2045V22.3984ZM57.3633 19.586C56.9517 18.9878 56.2482 18.6596 55.5254 18.7287L53.9392 18.8802C52.7649 18.9923 51.7491 18.0689 51.7491 16.8892V2.75049C51.7491 1.64592 50.8536 0.750488 49.7491 0.750488H32.0636C31.6279 0.750488 31.2424 1.03256 31.1105 1.44781L26.7022 15.3289C26.4573 16.1001 25.772 16.6477 24.9658 16.7164L19.8437 17.1528C19.2379 17.2044 18.7266 16.7079 18.7603 16.1009L19.1378 9.30596C19.1697 8.73276 18.7134 8.25049 18.1394 8.25049H17.1053C16.5899 8.25049 16.159 8.64218 16.1099 9.15521L15.3553 17.0386C15.3103 17.5093 14.9418 17.8841 14.472 17.9371L6.03417 18.889C5.02278 19.0031 4.25838 19.8586 4.25838 20.8764V27.45C4.25838 28.0023 3.81067 28.45 3.25838 28.45H2.00161C0.627832 28.45 -0.33696 29.8032 0.110847 31.102L1.19646 34.2505C1.47548 35.2013 2.8724 35.2671 3.32826 34.3873C5.46102 30.271 8.64019 27.2505 12.1965 27.2505C16.8616 27.2505 20.6965 29.7505 21.7667 34.7505H30.6965C32.6965 29.2505 34.6965 27.2505 40.1965 27.2505C44.8369 27.2505 47.8503 29.036 49.012 33.4505C49.1333 33.9115 49.5396 34.2505 50.0163 34.2505H57.1965C57.826 34.2505 58.4188 33.9541 58.7965 33.4505L60.6253 31.012C60.9866 30.5302 61.1116 29.9112 60.9656 29.327L59.2841 22.6012C59.2262 22.3693 59.1271 22.1496 58.9916 21.9527L57.3633 19.586Z" fill="#1B2340"/>
</svg>
