<svg width="113" height="53" viewBox="0 0 113 53" fill="none" xmlns="http://www.w3.org/2000/svg">
<path d="M112.151 41.0058V8.75062C112.151 2.44203 109.957 0 104.674 0L11.9627 0.203503C10.6668 0.203503 9.17143 1.32277 7.87547 3.66305C7.37702 4.57881 3.58882 10.5821 2.19317 13.6347C0.797513 16.789 0.996888 17.8065 0.996888 19.5363V41.3111C0.49844 41.4128 0 41.9216 0 42.5321V46.1951C0 46.9074 0.498443 47.4161 1.19627 47.4161H19.8382C19.8382 42.7356 23.2743 40.5079 27.7603 40.5079C32.1467 40.5079 34.9762 42.7356 34.9762 47.4161L79.4737 47.3144C80.6764 41.3111 82.4432 40.5079 86.9292 40.5079C91.3155 40.5079 94.0071 41.3111 95.108 47.3144H111.752C112.45 47.3144 112.948 46.8056 112.948 46.0934V42.4303C113.148 41.6163 112.749 41.1076 112.151 41.0058ZM17.7447 7.5296C17.7447 8.13338 17.7447 24.5237 17.7447 32.9496C17.7447 35.6613 15.591 37.8515 12.9342 37.8515H9.69533C7.03854 37.8515 4.88478 35.6561 4.88478 32.9444C4.88478 27.7845 4.88478 20.2924 4.88478 19.4345C4.88478 18.2135 5.18385 17.603 5.48292 16.9925C5.78199 16.382 10.5671 7.83486 11.4643 6.61384C12.3615 5.39282 13.159 5.39282 13.159 5.39282H15.7482C16.8789 5.39282 17.7447 6.37545 17.7447 7.5296ZM41.3711 22.1818C41.3711 22.8941 40.8727 23.4028 40.1748 23.4028H23.2276C22.5298 23.4028 22.0314 22.8941 22.0314 22.1818V6.41034C22.0314 5.69808 22.5298 5.18932 23.2276 5.18932H40.1748C40.8727 5.18932 41.3711 5.69808 41.3711 6.41034V22.1818ZM64.5988 22.1818C64.5988 22.8941 64.1003 23.4028 63.4025 23.4028H46.4553C45.7574 23.4028 45.259 22.8941 45.259 22.1818V6.41034C45.259 5.69808 45.7574 5.18932 46.4553 5.18932H63.4025C64.1003 5.18932 64.5988 5.69808 64.5988 6.41034V22.1818ZM70.1814 23.4028C69.4835 23.4028 68.9851 22.8941 68.9851 22.1818V6.41034C68.9851 5.69808 69.4835 5.18932 70.1814 5.18932H87.1286C87.8264 5.18932 88.3248 5.69808 88.3248 6.41034V22.1818C88.3248 22.8941 87.8264 23.4028 87.1286 23.4028H70.1814ZM107.665 22.0801C107.665 22.7923 107.166 23.3011 106.468 23.3011H94.0071C93.3093 23.3011 92.8109 22.7923 92.8109 22.0801V6.30859C92.8109 5.59633 93.3093 5.08757 94.0071 5.08757H106.468C107.166 5.08757 107.665 5.59633 107.665 6.30859V22.0801Z" fill="#1B2340"/>
<path d="M21.7474 47.4558C21.7668 48.5678 22.1065 49.6492 22.7239 50.5641C23.3413 51.4791 24.2089 52.1869 25.2177 52.5988C26.2265 53.0106 27.3317 53.108 28.3944 52.8789C29.4571 52.6498 30.4301 52.1043 31.1911 51.3108C31.9522 50.5174 32.4674 49.5115 32.6722 48.4192C32.8769 47.327 32.7621 46.1972 32.342 45.1715C31.922 44.1459 31.2154 43.2702 30.3111 42.6544C29.4068 42.0385 28.345 41.7099 27.2589 41.7099C25.7842 41.7238 24.3751 42.3369 23.3416 43.4143C22.308 44.4918 21.7346 45.9455 21.7474 47.4558ZM24.9425 47.4558C24.9501 46.9872 25.0928 46.5313 25.3527 46.1455C25.6126 45.7597 25.9781 45.4612 26.4031 45.2874C26.8282 45.1137 27.294 45.0726 27.7418 45.1691C28.1897 45.2657 28.5997 45.4957 28.9203 45.8302C29.2409 46.1647 29.4577 46.5888 29.5437 47.0491C29.6296 47.5095 29.5807 47.9856 29.4032 48.4176C29.2256 48.8496 28.9274 49.2182 28.5459 49.4771C28.1644 49.736 27.7166 49.8737 27.2589 49.8727C26.9519 49.8698 26.6484 49.805 26.3658 49.6819C26.0832 49.5589 25.827 49.3801 25.6119 49.1556C25.3968 48.9312 25.2269 48.6656 25.1121 48.3739C24.9972 48.0822 24.9396 47.7703 24.9425 47.4558Z" fill="#1B2340"/>
<path d="M81.8792 47.4558C81.8986 48.5678 82.2383 49.6492 82.8557 50.5641C83.4731 51.4791 84.3407 52.1869 85.3495 52.5988C86.3584 53.0106 87.4635 53.108 88.5262 52.8789C89.5889 52.6498 90.5619 52.1043 91.3229 51.3108C92.084 50.5174 92.5993 49.5115 92.804 48.4192C93.0088 47.327 92.8939 46.1972 92.4738 45.1715C92.0538 44.1459 91.3472 43.2702 90.4429 42.6544C89.5386 42.0385 88.4768 41.7099 87.3908 41.7099C85.916 41.7238 84.5069 42.3369 83.4734 43.4143C82.4399 44.4918 81.8665 45.9455 81.8792 47.4558ZM85.0743 47.4558C85.0819 46.9872 85.2247 46.5313 85.4845 46.1455C85.7444 45.7597 86.1099 45.4612 86.535 45.2874C86.96 45.1137 87.4258 45.0726 87.8736 45.1691C88.3215 45.2657 88.7315 45.4957 89.0521 45.8302C89.3727 46.1647 89.5896 46.5888 89.6755 47.0491C89.7614 47.5095 89.7125 47.9856 89.535 48.4176C89.3575 48.8496 89.0592 49.2182 88.6777 49.4771C88.2962 49.736 87.8484 49.8737 87.3908 49.8727C87.0837 49.8698 86.7802 49.805 86.4976 49.6819C86.215 49.5589 85.9588 49.3801 85.7437 49.1556C85.5286 48.9312 85.3588 48.6656 85.2439 48.3739C85.129 48.0822 85.0714 47.7703 85.0743 47.4558Z" fill="#1B2340"/>
</svg>
