<svg width="66" height="54" viewBox="0 0 66 54" fill="none" xmlns="http://www.w3.org/2000/svg">
<path d="M47.7757 45.6186C47.8028 47.1413 48.2776 48.622 49.1405 49.8749C50.0034 51.1278 51.216 52.097 52.626 52.6609C54.0359 53.2248 55.5805 53.3583 57.0658 53.0445C58.5511 52.7308 59.911 51.9838 60.9746 50.8974C62.0383 49.811 62.7584 48.4335 63.0446 46.9379C63.3308 45.4422 63.1702 43.8951 62.5832 42.4907C61.9961 41.0863 61.0086 39.8872 59.7447 39.0439C58.4808 38.2006 56.9967 37.7507 55.4789 37.7507C53.4177 37.7697 51.4483 38.6092 50.0038 40.0846C48.5593 41.56 47.7579 43.5505 47.7757 45.6186ZM52.2413 45.6186C52.2519 44.9769 52.4514 44.3527 52.8147 43.8244C53.1779 43.2961 53.6886 42.8873 54.2828 42.6494C54.8769 42.4116 55.5278 42.3552 56.1537 42.4874C56.7797 42.6197 57.3527 42.9346 57.8008 43.3926C58.2489 43.8506 58.552 44.4313 58.6721 45.0617C58.7922 45.6921 58.7239 46.3441 58.4757 46.9356C58.2276 47.5272 57.8107 48.0319 57.2775 48.3864C56.7443 48.741 56.1185 48.9294 55.4789 48.9282C55.0497 48.9242 54.6255 48.8354 54.2305 48.6669C53.8355 48.4984 53.4775 48.2535 53.1769 47.9462C52.8762 47.6389 52.6389 47.2751 52.4783 46.8758C52.3178 46.4764 52.2373 46.0492 52.2413 45.6186Z" fill="#1B2340"/>
<path d="M25.7757 45.6186C25.8028 47.1413 26.2776 48.622 27.1405 49.8749C28.0034 51.1278 29.216 52.097 30.626 52.6609C32.0359 53.2248 33.5805 53.3583 35.0658 53.0445C36.5511 52.7308 37.911 51.9838 38.9746 50.8974C40.0383 49.811 40.7585 48.4335 41.0446 46.9379C41.3308 45.4422 41.1702 43.8951 40.5832 42.4907C39.9961 41.0863 39.0086 39.8872 37.7447 39.0439C36.4808 38.2006 34.9967 37.7507 33.4789 37.7507C31.4177 37.7697 29.4483 38.6092 28.0038 40.0846C26.5593 41.56 25.7579 43.5505 25.7757 45.6186ZM30.2413 45.6186C30.2519 44.9769 30.4514 44.3527 30.8147 43.8244C31.1779 43.2961 31.6887 42.8873 32.2828 42.6494C32.8769 42.4116 33.5278 42.3552 34.1538 42.4874C34.7797 42.6197 35.3527 42.9346 35.8008 43.3926C36.2489 43.8506 36.552 44.4313 36.6721 45.0617C36.7922 45.6921 36.7239 46.3441 36.4757 46.9356C36.2276 47.5272 35.8107 48.0319 35.2775 48.3864C34.7443 48.741 34.1185 48.9294 33.4789 48.9282C33.0497 48.9242 32.6255 48.8354 32.2305 48.6669C31.8355 48.4984 31.4775 48.2535 31.1769 47.9462C30.8762 47.6389 30.6389 47.2751 30.4783 46.8758C30.3178 46.4764 30.2373 46.0492 30.2413 45.6186Z" fill="#1B2340"/>
<path d="M61.5191 32.7882C60.9668 32.7882 60.5191 32.3405 60.5191 31.7882V5.40834C60.5191 4.85606 60.0714 4.40834 59.5191 4.40834H43.1441C42.6208 4.40834 42.1183 4.61345 41.7445 4.97966L41.5168 5.20269C31.7161 14.8071 30.2001 21.8118 30.0591 22.6061L28.2258 32.7882H25.9696L24.7754 41.8356C25.4805 37.9722 30.2916 35.7505 34.2754 35.7505C38.7527 35.7505 42.0457 38.1682 42.0457 42.7537H46.5582C46.5582 38.1682 50.7981 35.7505 55.2754 35.7505C59.3599 35.7505 63.9513 38.4209 64.6804 42.3941C64.7534 42.7917 65.1849 43.0458 65.5465 42.865C65.6843 42.7961 65.7652 42.6492 65.7498 42.4959L64.9561 34.5885C64.8535 33.5664 63.9933 32.7882 62.9661 32.7882H61.5191ZM31.011 30.4052L32.3506 23.0394C32.3859 22.7867 33.6903 16.1791 43.1385 6.93581C43.2287 6.84346 43.3523 6.79139 43.4814 6.79139H57.2275C57.7798 6.79139 58.2275 7.2391 58.2275 7.79139V30.4052H31.011Z" fill="#1B2340"/>
<path d="M31.011 23.581H33.3137C33.7197 23.581 34.116 23.7046 34.4501 23.9353L40.8648 28.3646C41.4055 28.738 41.7284 29.3532 41.7284 30.0104V31.2718H29.5655L31.011 23.581Z" fill="#1B2340"/>
<path d="M55.6187 30.0802C55.6187 29.6831 55.3014 29.3581 54.9136 29.3581H47.4044C47.0166 29.3581 46.6993 29.6831 46.6993 30.0802V30.8746C46.6993 31.2718 47.0166 31.5967 47.4044 31.5967H54.9136C55.3014 31.5967 55.6187 31.2718 55.6187 30.8746V30.0802Z" fill="#1B2340"/>
<path d="M56.9584 21.9923C56.9584 21.5952 56.6411 21.2702 56.2533 21.2702H55.3719C54.9841 21.2702 54.6668 21.5952 54.6668 21.9923V31.5606C54.6668 31.9578 54.9841 32.2828 55.3719 32.2828H56.2533C56.6411 32.2828 56.9584 31.9578 56.9584 31.5606V21.9923Z" fill="#1B2340"/>
<path d="M37.47 23.0249C37.1915 22.8269 36.8047 22.8967 36.613 23.1796C36.4273 23.4536 36.4944 23.8258 36.7642 24.0176L42.2876 27.9448C42.5661 28.1427 42.953 28.0729 43.1447 27.7901C43.3304 27.5161 43.2632 27.1439 42.9934 26.952L37.47 23.0249Z" fill="#1B2340"/>
<path d="M39.1011 25.0961L37.9026 27.0114L39.09 27.7907L40.2885 25.8754L39.1011 25.0961Z" fill="#1B2340"/>
<path d="M33.6297 0.0364463C33.0929 -0.112026 32.5382 0.206728 32.3962 0.745307L20.7429 44.9419L21.787 45.2307C22.8606 45.5276 23.97 44.8901 24.254 43.813L35.3974 1.5504C35.537 1.0209 35.2248 0.477596 34.697 0.331627L33.6297 0.0364463Z" fill="#1B2340"/>
<path d="M1.50978 36.566C0.972922 36.4176 0.418319 36.7365 0.276429 37.2751L0.0332295 38.1983C-0.106405 38.7283 0.206669 39.272 0.73519 39.4173L21.8105 45.2104C22.8897 45.5071 24.0022 44.8604 24.2786 43.7759L24.4972 42.9181L1.50978 36.566Z" fill="#1B2340"/>
<path d="M25.9696 34.1242H24.0306V40.2818C24.0306 40.8859 24.3045 41.4573 24.7754 41.8356L25.9696 34.1242Z" fill="#1B2340"/>
</svg>
