<svg width="970" height="970" viewBox="0 0 970 970" fill="none" xmlns="http://www.w3.org/2000/svg">
<path fill-rule="evenodd" clip-rule="evenodd" d="M85.296 2.17743C43.844 10.9884 10.805 44.2044 2.19 85.7294C-0.73 99.8004 -0.73 869.658 2.19 883.729C10.855 925.493 44.032 958.67 85.796 967.335C99.867 970.255 869.725 970.255 883.796 967.335C919.133 960.004 949.421 934.372 962.409 900.807C969.923 881.39 969.27 921.013 969.27 484.729C969.27 107.847 969.207 94.4264 967.402 85.7294C958.737 43.9654 925.56 10.7884 883.796 2.12343C869.983 -0.742566 98.788 -0.690566 85.296 2.17743ZM321.296 249.122C415.198 260.178 471.315 326.261 462.355 415.229C456.122 477.119 434.027 505.307 338.296 573.502C279.481 615.4 256.296 635.446 256.296 644.4C256.296 644.856 302.871 645.229 359.796 645.229H463.296V686.229V727.229H300.211H137.125L137.755 719.479C144.524 636.207 172.595 592.292 259.571 528.904C304.415 496.221 323.639 480.82 337.34 466.596C391.074 410.812 370.141 327.229 302.437 327.229C259.952 327.229 238.724 349.997 234.839 399.729C234.495 404.129 233.965 409.866 233.661 412.479L233.108 417.229H188.202H143.296L143.297 410.979C143.313 327.043 188.122 264.873 257.796 252.116C263.846 251.008 270.27 249.647 272.071 249.092C273.873 248.536 276.573 248.341 278.071 248.658C279.57 248.975 282.146 248.805 283.796 248.279C287.437 247.12 308.27 247.588 321.296 249.122ZM778.296 402.229V551.229H805.296H832.296V587.729V624.229H805.296H778.296V675.729V727.229H732.796H687.296V675.729V624.229H592.796H498.296V583.378V542.527L585.991 397.878L673.685 253.229H725.991H778.296V402.229ZM665.296 382.661C653.471 402.973 626.664 449.098 605.724 485.161L567.652 550.729L627.133 550.987C659.847 551.129 686.769 551.089 686.959 550.899C687.15 550.709 687.191 504.467 687.051 448.141L686.796 345.729L665.296 382.661Z" fill="white"/>
</svg>
