<svg width="92" height="64" viewBox="0 0 92 64" fill="none" xmlns="http://www.w3.org/2000/svg">
<path d="M82.5003 0V28.3333H91.8337V64C80.167 64 68.167 64 56.5003 64V52.3333H0.166992V0C27.5003 0 54.8337 0 82.5003 0ZM84.5003 49H76.8337V56.6667H71.5003V49H63.8337V43.3333H71.5003V35.6667H76.8337V43.3333H84.5003V49ZM77.5003 28.3333V25.3333H5.16699V47.6667H56.5003V28.3333H77.5003ZM87.167 33.3333H61.167V59H87.167V33.3333ZM9.83366 35.3333H34.5003V40.3333H9.83366V35.3333ZM77.5003 12V4.66667H5.16699V12H77.5003Z" fill="#404040"/>
</svg>
