<svg width="94" height="64" viewBox="0 0 94 64" fill="none" xmlns="http://www.w3.org/2000/svg">
<path d="M50.2363 11.1189L42.2577 21.6098C42.1097 21.8038 42.0014 22.025 41.9389 22.2608C41.8764 22.4966 41.861 22.7425 41.8935 22.9842C41.9261 23.226 42.0059 23.459 42.1285 23.6699C42.251 23.8809 42.4139 24.0656 42.6079 24.2135L53.7993 32.6794C53.9929 32.8262 54.2137 32.9331 54.4489 32.9942C54.684 33.0553 54.929 33.0693 55.1696 33.0353C55.4101 33.0013 55.6416 32.9201 55.8507 32.7963C56.0598 32.6725 56.2423 32.5086 56.3878 32.314L59.433 28.2638L61.2906 29.6646C61.1263 29.8844 61.0069 30.1345 60.9394 30.4005C60.8719 30.6665 60.8575 30.9432 60.8971 31.2148C60.9367 31.4864 61.0295 31.7475 61.1702 31.9831C61.3109 32.2188 61.4967 32.4243 61.717 32.588L87.7845 52.3823C88.159 52.6835 88.5901 52.9064 89.0523 53.038C89.5145 53.1696 89.9984 53.2072 90.4754 53.1485C90.9523 53.0898 91.4127 52.936 91.8291 52.6962C92.2456 52.4565 92.6098 52.1356 92.9001 51.7526C93.1904 51.3696 93.4009 50.9323 93.5192 50.4665C93.6375 50.0008 93.6612 49.516 93.5888 49.0409C93.5164 48.5658 93.3495 48.1101 93.0979 47.7006C92.8463 47.2912 92.5152 46.9364 92.124 46.6572L66.0413 26.8629C65.6015 26.53 65.0485 26.3833 64.5016 26.4545C63.9546 26.5257 63.4576 26.8091 63.1178 27.2436L61.2602 25.8428L64.3055 21.7773C64.453 21.5846 64.561 21.3646 64.6233 21.13C64.6856 20.8954 64.7009 20.6508 64.6684 20.4103C64.6358 20.1698 64.5561 19.938 64.4337 19.7284C64.3113 19.5188 64.1487 19.3354 63.9553 19.1888L52.7791 10.723C52.3862 10.4479 51.902 10.3355 51.4281 10.4093C50.9541 10.4831 50.527 10.7374 50.2363 11.1189Z" fill="#404040"/>
<path d="M37.0618 23.6152L33.6328 28.1427C33.1911 28.7259 33.3058 29.5568 33.889 29.9985L50.615 42.6666C51.1982 43.1083 52.0291 42.9936 52.4708 42.4104L55.8998 37.883C56.3416 37.2998 56.2269 36.4689 55.6437 36.0272L38.9177 23.359C38.3344 22.9173 37.5036 23.032 37.0618 23.6152Z" fill="#404040"/>
<path d="M54.1434 1.05599L50.7144 5.58342C50.2726 6.16664 50.3873 6.9975 50.9705 7.43922L67.6966 20.1074C68.2798 20.5491 69.1106 20.4344 69.5524 19.8512L72.9814 15.3237C73.4231 14.7405 73.3084 13.9097 72.7252 13.4679L55.9992 0.799803C55.416 0.358084 54.5851 0.472784 54.1434 1.05599Z" fill="#404040"/>
<path d="M50.5558 56.128H50.3274C50.2644 54.4906 49.5693 52.9414 48.3882 51.8057C47.207 50.67 45.6318 50.0362 43.9932 50.0374H22.8286C21.19 50.0362 19.6147 50.67 18.4336 51.8057C17.2525 52.9414 16.5574 54.4906 16.4944 56.128H16.2508C15.8636 56.126 15.4798 56.2005 15.1215 56.3473C14.7632 56.4941 14.4375 56.7102 14.163 56.9833C13.8885 57.2564 13.6707 57.581 13.522 57.9385C13.3734 58.2961 13.2969 58.6794 13.2969 59.0666V64H53.5097V59.0666C53.5097 58.6794 53.4332 58.2961 53.2845 57.9385C53.1359 57.581 52.9181 57.2564 52.6436 56.9833C52.3691 56.7102 52.0433 56.4941 51.685 56.3473C51.3267 56.2005 50.943 56.126 50.5558 56.128Z" fill="#404040"/>
<path d="M20.5447 40.4753C20.2135 40.8063 19.7644 40.9922 19.2962 40.9922C18.8279 40.9922 18.3788 40.8063 18.0476 40.4753L5.47064 27.8983C5.15272 27.5645 4.97791 27.1196 4.98353 26.6586C4.98915 26.1977 5.17476 25.7572 5.50072 25.4313C5.82669 25.1053 6.26717 24.9197 6.72812 24.9141C7.18907 24.9084 7.63395 25.0832 7.96776 25.4012L20.5447 37.9781C20.8757 38.3094 21.0617 38.7584 21.0617 39.2267C21.0617 39.695 20.8757 40.1441 20.5447 40.4753Z" fill="#404040"/>
<path d="M26.4982 35.0699C26.253 35.3275 25.9357 35.5051 25.5879 35.5794C25.2401 35.6537 24.8779 35.6212 24.5489 35.4863C24.2198 35.3514 23.9391 35.1203 23.7436 34.8232C23.548 34.5261 23.4467 34.177 23.4529 33.8214V19.8283C23.4529 19.3599 23.639 18.9106 23.9702 18.5794C24.3015 18.2482 24.7507 18.0621 25.2192 18.0621C25.6876 18.0621 26.1369 18.2482 26.4681 18.5794C26.7993 18.9106 26.9854 19.3599 26.9854 19.8283V33.7909C26.9934 34.0258 26.9544 34.2599 26.8707 34.4795C26.7871 34.6991 26.6604 34.8999 26.4982 35.0699Z" fill="#404040"/>
<path d="M17.378 46.5354C17.0469 46.8667 16.5978 47.0529 16.1294 47.0531H2.13637C1.66793 47.0531 1.21868 46.867 0.887442 46.5358C0.556205 46.2045 0.370117 45.7553 0.370117 45.2868C0.370117 44.8184 0.556205 44.3691 0.887442 44.0379C1.21868 43.7067 1.66793 43.5206 2.13637 43.5206H16.1294C16.485 43.5144 16.8342 43.6157 17.1313 43.8112C17.4283 44.0068 17.6594 44.2875 17.7944 44.6165C17.9293 44.9456 17.9617 45.3077 17.8874 45.6555C17.8131 46.0034 17.6356 46.3206 17.378 46.5658V46.5354Z" fill="#404040"/>
</svg>
