<svg width="96" height="53" viewBox="0 0 96 53" fill="none" xmlns="http://www.w3.org/2000/svg">
<path d="M12.7964 44.4502C12.8234 45.9732 13.2981 47.4542 14.161 48.7074C15.024 49.9606 16.2367 50.9301 17.6469 51.4942C19.0571 52.0583 20.6019 52.1919 22.0875 51.8781C23.5731 51.5644 24.9332 50.8173 25.9971 49.7306C27.0609 48.644 27.7812 47.2663 28.0673 45.7704C28.3535 44.2745 28.1929 42.7271 27.6056 41.3225C27.0183 39.9179 26.0306 38.7186 24.7663 37.8753C23.5021 37.032 22.0177 36.5821 20.4996 36.5823C18.4384 36.6013 16.4691 37.4408 15.0246 38.9162C13.5801 40.3916 12.7786 42.3821 12.7964 44.4502ZM17.261 44.4502C17.2717 43.8085 17.4711 43.1844 17.8343 42.6561C18.1975 42.1278 18.7082 41.719 19.3023 41.4811C19.8963 41.2432 20.5472 41.1868 21.1731 41.3189C21.799 41.4511 22.3721 41.7659 22.8202 42.2239C23.2683 42.6818 23.5715 43.2624 23.6917 43.8927C23.8119 44.523 23.7438 45.175 23.4958 45.7665C23.2478 46.3581 22.8311 46.8629 22.298 47.2176C21.7649 47.5722 21.1392 47.7608 20.4996 47.7598C19.6327 47.7517 18.8046 47.3985 18.1973 46.7778C17.5899 46.1572 17.2532 45.32 17.261 44.4502Z" fill="#1B2340"/>
<path d="M66.2785 44.4502C66.3056 45.9729 66.7804 47.4536 67.6433 48.7065C68.5062 49.9594 69.7188 50.9286 71.1287 51.4925C72.5387 52.0565 74.0833 52.1899 75.5686 51.8762C77.0539 51.5624 78.4137 50.8154 79.4774 49.729C80.5411 48.6426 81.2612 47.2651 81.5474 45.7695C81.8336 44.2738 81.673 42.7267 81.0859 41.3223C80.4989 39.9179 79.5114 38.7188 78.2475 37.8755C76.9835 37.0322 75.4995 36.5823 73.9817 36.5823C71.9204 36.6013 69.9511 37.4408 68.5066 38.9162C67.0621 40.3916 66.2607 42.3821 66.2785 44.4502ZM70.7441 44.4502C70.7547 43.8085 70.9542 43.1843 71.3174 42.656C71.6807 42.1277 72.1914 41.7189 72.7855 41.481C73.3797 41.2432 74.0306 41.1868 74.6565 41.319C75.2825 41.4513 75.8555 41.7662 76.3036 42.2242C76.7517 42.6822 77.0548 43.263 77.1749 43.8933C77.295 44.5237 77.2267 45.1757 76.9785 45.7672C76.7304 46.3588 76.3135 46.8635 75.7803 47.2181C75.2471 47.5726 74.6213 47.761 73.9817 47.7598C73.5525 47.7558 73.1283 47.667 72.7333 47.4985C72.3383 47.33 71.9803 47.0851 71.6796 46.7778C71.379 46.4705 71.1417 46.1068 70.9811 45.7074C70.8206 45.308 70.74 44.8808 70.7441 44.4502Z" fill="#1B2340"/>
<path d="M96 6.82051V33.9829C96 33.9829 96 34.3419 96 34.8205C96 35.0598 96 35.2991 96 35.6581C96 36.1368 96 36.6154 96 36.9744V40.6838C96 41.4107 95.4107 42 94.6838 42H83.4027C82.3579 37.8 77.9675 35.6581 73.7684 35.6581C69.7263 36.12 66.1895 37.8 65.179 42H29.9729C28.2948 37.8 24.9149 35.7 20.7158 35.7C16.5167 35.7 12.1264 38.22 11.6211 42H0.420046C0.188079 42 2.52824e-05 41.812 0 41.58C0 41.58 4.57763e-05 41.0427 4.57763e-05 40.8034V30.5128C4.57763e-05 29.7949 0.724027 28.8376 1.44801 28.5983L5.21271 27.0427C5.93669 26.6838 6.66068 26.4444 6.66068 26.4444C6.66068 26.4444 7.09506 25.9658 7.52945 25.2479L16.5068 12.3248C16.9412 11.7265 18.0996 11.1282 18.9684 11.1282H29.8281C30.6969 11.1282 31.4208 11.7265 31.4208 12.4444L31.276 26.0855C31.276 26.8034 31.7104 27.4017 32.4344 27.4017C33.0136 27.4017 33.5928 26.8034 33.5928 26.0855V11.2479C33.5928 10.5299 32.8688 9.93162 32 9.93162H18.8236C17.9548 9.93162 16.7964 9.69231 16.362 9.33333C15.9276 8.97436 16.0724 8.25641 16.6516 7.65812L23.457 1.07692C24.3258 0.478633 25.629 0 26.4978 0H94.2624C95.1312 0 95.8552 0.598291 95.8552 1.31624V5.38462C96 6.10256 96 6.82051 96 6.82051ZM20.1267 12.6838C19.258 12.6838 18.0996 13.1624 17.6652 13.8803L12.0181 22.1368C11.5837 22.735 11.8733 23.3333 12.8869 23.3333H24.0362C24.905 23.3333 25.629 22.735 25.7738 22.0171L25.9186 14.1197C25.9186 13.4017 25.1946 12.8034 24.3258 12.8034H20.1267V12.6838ZM92.9593 14.9573C92.9593 14.2393 92.2353 13.641 91.3665 13.641H70.8054C69.9367 13.641 69.2127 14.2393 69.2127 14.9573V23.2137C69.2127 23.9316 69.9367 24.5299 70.8054 24.5299H91.2217C92.0905 24.5299 92.8145 23.9316 92.8145 23.2137V14.9573H92.9593ZM34.172 3.82906C34.172 3.11111 33.448 2.51282 32.5792 2.51282H26.9322C26.0634 2.51282 24.7602 2.99145 24.181 3.58974L21.1403 6.46154C20.5611 7.05983 20.7059 7.53846 21.7195 7.53846H32.5792C33.448 7.53846 34.172 6.94017 34.172 6.22222V3.82906ZM22.0091 30.9915C22.0091 30.661 21.7412 30.3932 21.4108 30.3932H17.1051C16.7747 30.3932 16.5068 30.661 16.5068 30.9915C16.5068 31.3219 16.7747 31.5897 17.1051 31.5897H21.4108C21.7412 31.5897 22.0091 31.3219 22.0091 30.9915ZM55.0226 31.4701C55.0226 31.1397 54.7548 30.8718 54.4244 30.8718H50.1187C49.7882 30.8718 49.5204 31.1397 49.5204 31.4701C49.5204 31.8005 49.7882 32.0684 50.1187 32.0684H54.4244C54.7548 32.0684 55.0226 31.8005 55.0226 31.4701ZM57.1946 14.9573C57.1946 14.2393 56.4706 13.641 55.6018 13.641H46.1901C45.3213 13.641 44.5973 14.2393 44.5973 14.9573V25.1282C44.5973 25.8462 45.3213 26.4444 46.1901 26.4444H55.6018C56.4706 26.4444 57.1946 25.8462 57.1946 25.1282V14.9573Z" fill="#1B2340"/>
</svg>
