<svg width="61" height="37" viewBox="0 0 61 37" fill="none" xmlns="http://www.w3.org/2000/svg">
<path d="M50.9 23.9C52.6 23.9 54 25.3 54 27C54 28.7 52.6 30.1 50.9 30.1C49.2 30.1 47.8 28.7 47.8 27C47.8 25.2 49.2 23.9 50.9 23.9ZM50.9 16.9C56.4 16.9 60.9 21.4 60.9 26.9C60.9 32.4 56.4 36.9 50.9 36.9C45.4 36.9 40.9 32.4 40.9 26.9C40.9 21.4 45.4 16.9 50.9 16.9ZM50.9 32.5C54 32.5 56.4 30 56.4 27C56.4 24 53.9 21.5 50.9 21.5C47.8 21.5 45.4 24 45.4 27C45.4 30 47.9 32.5 50.9 32.5ZM6.9 27C6.9 28.7 8.3 30.1 10 30.1C11.7 30.1 13.1 28.7 13.1 27C13.1 25.3 11.7 23.9 10 23.9C8.3 23.9 6.9 25.2 6.9 27ZM10 16.9C15.5 16.9 20 21.4 20 26.9C20 32.4 15.5 36.9 10 36.9C4.5 37 0 32.5 0 27C0 21.4 4.5 16.9 10 16.9ZM10 32.5C13.1 32.5 15.5 30 15.5 27C15.5 24 13 21.5 10 21.5C7 21.5 4.5 23.9 4.5 27C4.5 30.1 7 32.5 10 32.5Z" fill="#1B2340"/>
<path d="M40.4 19.3H41.9L42.1 19.1L59.0889 8.65181C59.948 8.12351 59.5735 6.8 58.5651 6.8H46.7431C46.5207 6.8 46.3047 6.87412 46.1292 7.01065L41.2708 10.7894C41.0953 10.9259 40.8793 11 40.6569 11H35.5V9.12609C35.5 8.69308 35.2213 8.30927 34.8096 8.17521L22.8785 4.29066C22.7121 4.2365 22.5298 4.29469 22.4255 4.43519C22.1369 4.82418 21.5319 4.47397 21.7254 4.02996L22 3.4H26C26.9 3.4 27.7 2.6 27.7 1.7C27.7 0.8 27 0 26 0H20.4C19.5 0 18.7 0.8 18.7 1.7C18.7 1.9 18.7 2 18.8 2.2L17 6.5C16.361 5.86097 15.2753 5.41336 13.9978 5.2591C13.4495 5.19289 13 5.64772 13 6.2V9.4C13 9.95228 13.45 10.4084 13.9968 10.3309C14.3489 10.281 14.688 10.204 15 10.1C14.5 10.3 9.4 12.7 13.2 15.4L8.5 26.4L11.6 27.7L16.2 17C24.8 21 22.9 28.9 22.9 28.9H37.7L39.3 25.6L50 28.2L50.8 25L40.4 22.3V19.3Z" fill="#1B2340"/>
</svg>
