<svg width="99" height="48" viewBox="0 0 99 48" fill="none" xmlns="http://www.w3.org/2000/svg">
<path d="M13.0003 40.2007C13.0272 41.7237 13.5019 43.2047 14.3649 44.4579C15.2278 45.7111 16.4405 46.6806 17.8507 47.2447C19.2609 47.8088 20.8058 47.9424 22.2914 47.6286C23.7769 47.3149 25.137 46.5678 26.2009 45.4811C27.2648 44.3945 27.985 43.0168 28.2712 41.5209C28.5574 40.025 28.3968 38.4776 27.8095 37.073C27.2222 35.6683 26.2344 34.4691 24.9702 33.6258C23.706 32.7824 22.2216 32.3326 20.7035 32.3328C18.6422 32.3518 16.6729 33.1913 15.2284 34.6667C13.7839 36.1421 12.9825 38.1326 13.0003 40.2007ZM17.4649 40.2007C17.4755 39.559 17.675 38.9348 18.0382 38.4066C18.4014 37.8783 18.9121 37.4695 19.5061 37.2316C20.1002 36.9937 20.7511 36.9373 21.377 37.0694C22.0029 37.2016 22.5759 37.5164 23.0241 37.9743C23.4722 38.4323 23.7754 39.0129 23.8956 39.6432C24.0158 40.2735 23.9476 40.9254 23.6996 41.517C23.4517 42.1086 23.0349 42.6134 22.5018 42.968C21.9687 43.3227 21.3431 43.5113 20.7035 43.5102C19.8366 43.5022 19.0084 43.149 18.4011 42.5283C17.7938 41.9077 17.457 41.0704 17.4649 40.2007Z" fill="#1B2340"/>
<path d="M57.4823 40.2007C57.5095 41.7234 57.9843 43.2041 58.8472 44.457C59.7101 45.7099 60.9226 46.6791 62.3326 47.243C63.7426 47.8069 65.2872 47.9404 66.7725 47.6266C68.2578 47.3129 69.6176 46.5659 70.6813 45.4795C71.745 44.393 72.4651 43.0156 72.7513 41.52C73.0374 40.0243 72.8769 38.4772 72.2898 37.0728C71.7027 35.6684 70.7152 34.4693 69.4513 33.626C68.1874 32.7827 66.7034 32.3328 65.1855 32.3328C63.1243 32.3518 61.155 33.1913 59.7105 34.6667C58.2659 36.1421 57.4645 38.1326 57.4823 40.2007ZM61.9479 40.2007C61.9586 39.559 62.1581 38.9348 62.5213 38.4065C62.8845 37.8782 63.3953 37.4694 63.9894 37.2315C64.5835 36.9937 65.2345 36.9373 65.8604 37.0695C66.4863 37.2017 67.0594 37.5167 67.5074 37.9747C67.9555 38.4327 68.2586 39.0134 68.3787 39.6438C68.4988 40.2742 68.4305 40.9262 68.1824 41.5177C67.9343 42.1093 67.5174 42.614 66.9842 42.9685C66.451 43.3231 65.8252 43.5115 65.1855 43.5103C64.7563 43.5063 64.3321 43.4175 63.9372 43.249C63.5422 43.0805 63.1841 42.8356 62.8835 42.5283C62.5829 42.221 62.3455 41.8572 62.185 41.4579C62.0245 41.0585 61.9439 40.6313 61.9479 40.2007Z" fill="#1B2340"/>
<path d="M74.4823 40.2007C74.5095 41.7234 74.9843 43.2041 75.8472 44.457C76.7101 45.7099 77.9226 46.6791 79.3326 47.243C80.7426 47.8069 82.2872 47.9404 83.7725 47.6266C85.2578 47.3129 86.6176 46.5659 87.6813 45.4795C88.745 44.393 89.4651 43.0156 89.7513 41.52C90.0374 40.0243 89.8769 38.4772 89.2898 37.0728C88.7027 35.6684 87.7152 34.4693 86.4513 33.626C85.1874 32.7827 83.7034 32.3328 82.1855 32.3328C80.1243 32.3518 78.155 33.1913 76.7104 34.6667C75.2659 36.1421 74.4645 38.1326 74.4823 40.2007ZM78.9479 40.2007C78.9586 39.559 79.1581 38.9348 79.5213 38.4065C79.8845 37.8782 80.3953 37.4694 80.9894 37.2315C81.5835 36.9937 82.2345 36.9373 82.8604 37.0695C83.4863 37.2017 84.0594 37.5167 84.5074 37.9747C84.9555 38.4327 85.2586 39.0134 85.3787 39.6438C85.4988 40.2742 85.4305 40.9262 85.1824 41.5177C84.9343 42.1093 84.5174 42.614 83.9842 42.9685C83.451 43.3231 82.8252 43.5115 82.1855 43.5103C81.7563 43.5063 81.3321 43.4175 80.9372 43.249C80.5422 43.0805 80.1841 42.8356 79.8835 42.5283C79.5829 42.221 79.3455 41.8572 79.185 41.4579C79.0245 41.0585 78.9439 40.6313 78.9479 40.2007Z" fill="#1B2340"/>
<path d="M96.4 26.6505C97.5046 26.6505 98.4 27.5459 98.4 28.6505V35.9505C98.4 37.0551 97.5046 37.9505 96.4 37.9505H92.2C92.2 37.9505 92.2 37.8505 92.1 37.8505C91.2 33.4505 87.3 30.1505 82.6 30.1505C82.4 30.1505 63.8 30.1505 63.6 30.1505C59.2 30.4505 55.6 33.6505 54.8 37.9505H30.2C29.3 33.5505 25.4 30.1505 20.7 30.1505C16 30.1505 12.1 33.4505 11.2 37.9505H2C0.895428 37.9505 0 37.0551 0 35.9505V19.2789C0 18.7485 0.210713 18.2398 0.585786 17.8647L0.85444 17.596C1.20554 17.245 1.41348 16.7758 1.43782 16.2799L2.10665 2.65245C2.15893 1.58727 3.03779 0.750488 4.10425 0.750488H22.1114C23.1299 0.750488 23.9857 1.51581 24.099 2.52794L26.601 24.873C26.7143 25.8852 27.5701 26.6505 28.5886 26.6505H96.4ZM5.17938 5.25049C4.63522 5.25049 4.19093 5.68561 4.1796 6.22966L4.02127 13.8297C4.00959 14.39 4.46061 14.8505 5.02105 14.8505H16.5104C17.0586 14.8505 17.5046 14.4091 17.5103 13.8609L17.5895 6.2609C17.5953 5.70458 17.1459 5.25049 16.5895 5.25049H5.17938Z" fill="#1B2340"/>
</svg>
