<svg width="105" height="39" viewBox="0 0 105 39" fill="none" xmlns="http://www.w3.org/2000/svg">
  <path
    d="M31.0003 30.6184C31.0274 32.1411 31.5022 33.6218 32.3651 34.8747C33.228 36.1276 34.4406 37.0968 35.8505 37.6607C37.2605 38.2246 38.8051 38.3581 40.2904 38.0443C41.7757 37.7306 43.1355 36.9836 44.1992 35.8972C45.2629 34.8108 45.983 33.4333 46.2692 31.9377C46.5554 30.442 46.3948 28.8949 45.8077 27.4905C45.2207 26.0861 44.2332 24.887 42.9693 24.0437C41.7053 23.2004 40.2213 22.7505 38.7035 22.7505C36.6422 22.7695 34.6729 23.609 33.2284 25.0844C31.7839 26.5598 30.9825 28.5503 31.0003 30.6184ZM35.4659 30.6184C35.4765 29.9767 35.676 29.3525 36.0392 28.8242C36.4025 28.2959 36.9132 27.8871 37.5073 27.6492C38.1015 27.4114 38.7524 27.355 39.3783 27.4872C40.0043 27.6195 40.5773 27.9344 41.0254 28.3924C41.4735 28.8504 41.7766 29.4311 41.8967 30.0615C42.0168 30.6919 41.9485 31.3439 41.7003 31.9354C41.4522 32.527 41.0353 33.0317 40.5021 33.3862C39.9689 33.7408 39.3431 33.9292 38.7035 33.928C38.2743 33.924 37.8501 33.8352 37.4551 33.6667C37.0601 33.4982 36.7021 33.2533 36.4015 32.946C36.1008 32.6387 35.8635 32.2749 35.7029 31.8756C35.5424 31.4762 35.4618 31.049 35.4659 30.6184Z"
    fill="#1B2340"/>
  <path
    d="M77.0003 30.6184C77.0274 32.1411 77.5022 33.6218 78.3651 34.8747C79.228 36.1276 80.4406 37.0968 81.8505 37.6607C83.2605 38.2246 84.8051 38.3581 86.2904 38.0443C87.7757 37.7306 89.1355 36.9836 90.1992 35.8972C91.2629 34.8108 91.983 33.4333 92.2692 31.9377C92.5554 30.442 92.3948 28.8949 91.8077 27.4905C91.2207 26.0861 90.2332 24.887 88.9693 24.0437C87.7053 23.2004 86.2213 22.7505 84.7035 22.7505C82.6422 22.7695 80.6729 23.609 79.2284 25.0844C77.7839 26.5598 76.9825 28.5503 77.0003 30.6184ZM81.4659 30.6184C81.4765 29.9767 81.676 29.3525 82.0392 28.8242C82.4025 28.2959 82.9132 27.8871 83.5073 27.6492C84.1015 27.4114 84.7524 27.355 85.3783 27.4872C86.0043 27.6195 86.5773 27.9344 87.0254 28.3924C87.4735 28.8504 87.7766 29.4311 87.8967 30.0615C88.0168 30.6919 87.9485 31.3439 87.7003 31.9354C87.4522 32.527 87.0353 33.0317 86.5021 33.3862C85.9689 33.7408 85.3431 33.9292 84.7035 33.928C84.2743 33.924 83.8501 33.8352 83.4551 33.6667C83.0601 33.4982 82.7021 33.2533 82.4015 32.946C82.1008 32.6387 81.8635 32.2749 81.7029 31.8756C81.5424 31.4762 81.4618 31.049 81.4659 30.6184Z"
    fill="#1B2340"/>
  <path
    d="M47.7399 27.7505C47 25.2505 45 21.2505 39.5 21.2505C34.308 21.2505 30.8983 22.5872 29.6915 26.9429C29.5631 27.4062 29.1519 27.7467 28.6713 27.7416L3.5 27.4724H2C0.895431 27.4724 0 26.577 0 25.4724V24.2207C0 23.1162 0.895431 22.2207 2 22.2207H3.5H17.4444C18.549 22.2207 19.4444 21.3253 19.4444 20.2207V2.75915C19.4444 1.6512 20.3452 0.754374 21.4531 0.759174L103.009 1.11255C104.11 1.11732 105 2.01135 105 3.11253V25.7505C105 26.855 104.105 27.7505 103 27.7505H93.5C92 23.2505 89.3536 21.2505 84.5 21.2505C77 21.2505 76 25.7505 75.5 27.7505C75.6235 27.5033 75.3765 27.9667 75.5 27.7505H47.7399Z"
    fill="#1B2340"/>
</svg>
